<mxfile host="app.diagrams.net" modified="2022-04-29T09:16:10.859Z" agent="5.0 (Windows NT 10.0; Win64; x64) AppleWebKit/537.36 (KHTML, like Gecko) Chrome/100.0.4896.127 Safari/537.36" etag="Ok9-uxQl8mhX1hEN5peY" version="17.5.0" type="github">
  <diagram id="chEgpokyLBlBoR-Go0VJ" name="Page-1">
    <mxGraphModel dx="1422" dy="771" grid="1" gridSize="10" guides="1" tooltips="1" connect="1" arrows="1" fold="1" page="1" pageScale="1" pageWidth="827" pageHeight="1169" math="0" shadow="0">
      <root>
        <mxCell id="0" />
        <mxCell id="1" parent="0" />
        <mxCell id="xFz5b3L0j1ukIrrEESzT-16" style="edgeStyle=orthogonalEdgeStyle;rounded=0;orthogonalLoop=1;jettySize=auto;html=1;exitX=0.5;exitY=1;exitDx=0;exitDy=0;" edge="1" parent="1" source="xFz5b3L0j1ukIrrEESzT-1" target="xFz5b3L0j1ukIrrEESzT-2">
          <mxGeometry relative="1" as="geometry" />
        </mxCell>
        <mxCell id="xFz5b3L0j1ukIrrEESzT-1" value="开始" style="ellipse;whiteSpace=wrap;html=1;" vertex="1" parent="1">
          <mxGeometry x="250" y="30" width="110" height="60" as="geometry" />
        </mxCell>
        <mxCell id="xFz5b3L0j1ukIrrEESzT-8" value="假" style="edgeStyle=orthogonalEdgeStyle;rounded=0;orthogonalLoop=1;jettySize=auto;html=1;" edge="1" parent="1" source="xFz5b3L0j1ukIrrEESzT-2" target="xFz5b3L0j1ukIrrEESzT-7">
          <mxGeometry relative="1" as="geometry">
            <Array as="points">
              <mxPoint x="305" y="240" />
              <mxPoint x="305" y="240" />
            </Array>
          </mxGeometry>
        </mxCell>
        <mxCell id="xFz5b3L0j1ukIrrEESzT-37" value="真" style="edgeStyle=orthogonalEdgeStyle;rounded=0;orthogonalLoop=1;jettySize=auto;html=1;entryX=0.5;entryY=0;entryDx=0;entryDy=0;" edge="1" parent="1" source="xFz5b3L0j1ukIrrEESzT-2" target="xFz5b3L0j1ukIrrEESzT-3">
          <mxGeometry relative="1" as="geometry" />
        </mxCell>
        <mxCell id="xFz5b3L0j1ukIrrEESzT-2" value="点总数9~12w" style="rhombus;whiteSpace=wrap;html=1;" vertex="1" parent="1">
          <mxGeometry x="252.5" y="130" width="105" height="100" as="geometry" />
        </mxCell>
        <mxCell id="xFz5b3L0j1ukIrrEESzT-3" value="渲染图形" style="rounded=0;whiteSpace=wrap;html=1;" vertex="1" parent="1">
          <mxGeometry x="60" y="460" width="120" height="60" as="geometry" />
        </mxCell>
        <mxCell id="xFz5b3L0j1ukIrrEESzT-11" style="edgeStyle=orthogonalEdgeStyle;rounded=0;orthogonalLoop=1;jettySize=auto;html=1;exitX=0.5;exitY=1;exitDx=0;exitDy=0;" edge="1" parent="1" source="xFz5b3L0j1ukIrrEESzT-7" target="xFz5b3L0j1ukIrrEESzT-9">
          <mxGeometry relative="1" as="geometry" />
        </mxCell>
        <mxCell id="xFz5b3L0j1ukIrrEESzT-7" value="计算各亚群点数量" style="whiteSpace=wrap;html=1;" vertex="1" parent="1">
          <mxGeometry x="252.5" y="270" width="105" height="40" as="geometry" />
        </mxCell>
        <mxCell id="xFz5b3L0j1ukIrrEESzT-26" value="真" style="edgeStyle=orthogonalEdgeStyle;rounded=0;orthogonalLoop=1;jettySize=auto;html=1;exitX=1;exitY=0.5;exitDx=0;exitDy=0;" edge="1" parent="1" source="xFz5b3L0j1ukIrrEESzT-9" target="xFz5b3L0j1ukIrrEESzT-28">
          <mxGeometry relative="1" as="geometry">
            <mxPoint x="500" y="390" as="targetPoint" />
          </mxGeometry>
        </mxCell>
        <mxCell id="xFz5b3L0j1ukIrrEESzT-35" value="假" style="edgeStyle=orthogonalEdgeStyle;rounded=0;orthogonalLoop=1;jettySize=auto;html=1;exitX=0.5;exitY=1;exitDx=0;exitDy=0;entryX=0.5;entryY=0;entryDx=0;entryDy=0;" edge="1" parent="1" source="xFz5b3L0j1ukIrrEESzT-9" target="xFz5b3L0j1ukIrrEESzT-17">
          <mxGeometry relative="1" as="geometry" />
        </mxCell>
        <mxCell id="xFz5b3L0j1ukIrrEESzT-9" value="小于6000" style="rhombus;whiteSpace=wrap;html=1;" vertex="1" parent="1">
          <mxGeometry x="265" y="350" width="80" height="80" as="geometry" />
        </mxCell>
        <mxCell id="xFz5b3L0j1ukIrrEESzT-33" style="edgeStyle=orthogonalEdgeStyle;rounded=0;orthogonalLoop=1;jettySize=auto;html=1;entryX=0.5;entryY=1;entryDx=0;entryDy=0;" edge="1" parent="1" source="xFz5b3L0j1ukIrrEESzT-12" target="xFz5b3L0j1ukIrrEESzT-31">
          <mxGeometry relative="1" as="geometry">
            <mxPoint x="670" y="440" as="targetPoint" />
          </mxGeometry>
        </mxCell>
        <mxCell id="xFz5b3L0j1ukIrrEESzT-12" value="拟合点" style="rounded=1;whiteSpace=wrap;html=1;" vertex="1" parent="1">
          <mxGeometry x="586" y="585" width="168" height="95" as="geometry" />
        </mxCell>
        <mxCell id="xFz5b3L0j1ukIrrEESzT-27" value="真" style="edgeStyle=orthogonalEdgeStyle;rounded=0;orthogonalLoop=1;jettySize=auto;html=1;entryX=0.5;entryY=1;entryDx=0;entryDy=0;" edge="1" parent="1" source="xFz5b3L0j1ukIrrEESzT-17" target="xFz5b3L0j1ukIrrEESzT-28">
          <mxGeometry x="-0.4915" relative="1" as="geometry">
            <mxPoint x="510" y="430" as="targetPoint" />
            <Array as="points">
              <mxPoint x="510" y="560" />
            </Array>
            <mxPoint as="offset" />
          </mxGeometry>
        </mxCell>
        <mxCell id="xFz5b3L0j1ukIrrEESzT-40" value="假" style="edgeStyle=orthogonalEdgeStyle;rounded=0;orthogonalLoop=1;jettySize=auto;html=1;exitX=0.5;exitY=1;exitDx=0;exitDy=0;" edge="1" parent="1" source="xFz5b3L0j1ukIrrEESzT-17" target="xFz5b3L0j1ukIrrEESzT-12">
          <mxGeometry relative="1" as="geometry" />
        </mxCell>
        <mxCell id="xFz5b3L0j1ukIrrEESzT-17" value="小于中位数" style="rhombus;whiteSpace=wrap;html=1;" vertex="1" parent="1">
          <mxGeometry x="265" y="520" width="80" height="80" as="geometry" />
        </mxCell>
        <mxCell id="xFz5b3L0j1ukIrrEESzT-30" style="edgeStyle=orthogonalEdgeStyle;rounded=0;orthogonalLoop=1;jettySize=auto;html=1;exitX=1;exitY=0.5;exitDx=0;exitDy=0;" edge="1" parent="1" source="xFz5b3L0j1ukIrrEESzT-28" target="xFz5b3L0j1ukIrrEESzT-31">
          <mxGeometry relative="1" as="geometry">
            <mxPoint x="600" y="400" as="targetPoint" />
            <Array as="points" />
          </mxGeometry>
        </mxCell>
        <mxCell id="xFz5b3L0j1ukIrrEESzT-28" value="保留亚群数据" style="rounded=1;whiteSpace=wrap;html=1;" vertex="1" parent="1">
          <mxGeometry x="450" y="360" width="120" height="60" as="geometry" />
        </mxCell>
        <mxCell id="xFz5b3L0j1ukIrrEESzT-34" style="edgeStyle=orthogonalEdgeStyle;rounded=0;orthogonalLoop=1;jettySize=auto;html=1;entryX=1;entryY=0.5;entryDx=0;entryDy=0;" edge="1" parent="1" source="xFz5b3L0j1ukIrrEESzT-31" target="xFz5b3L0j1ukIrrEESzT-2">
          <mxGeometry relative="1" as="geometry">
            <Array as="points">
              <mxPoint x="690" y="170" />
            </Array>
          </mxGeometry>
        </mxCell>
        <mxCell id="xFz5b3L0j1ukIrrEESzT-31" value="总体求和" style="rounded=1;whiteSpace=wrap;html=1;" vertex="1" parent="1">
          <mxGeometry x="610" y="360" width="120" height="60" as="geometry" />
        </mxCell>
      </root>
    </mxGraphModel>
  </diagram>
</mxfile>
